<svg width="164" height="38" viewBox="0 0 164 38" fill="none" xmlns="http://www.w3.org/2000/svg">
<g filter="url(#filter0_dd_13001_399)">
<rect x="3.1" y="2.1" width="31.8" height="31.8" rx="7.9" fill="white"/>
<rect x="3.1" y="2.1" width="31.8" height="31.8" rx="7.9" fill="url(#paint0_linear_13001_399)"/>
<rect x="3.1" y="2.1" width="31.8" height="31.8" rx="7.9" stroke="#D0D5DD" stroke-width="0.2"/>
<path d="M18.3546 13.1828C22.7105 11.4504 27.4742 12.8185 29.6373 14.9133C30.106 15.3671 30.5041 15.8275 30.845 16.2852C31.0394 15.2107 31.0552 14.1405 30.8681 13.1055C30.1847 9.32649 26.6195 7.18561 23.4233 8.29149C20.2415 9.3924 19.0005 11.5321 19.0005 11.5321C19.0005 11.5321 17.7595 9.3924 14.5777 8.29149C11.3812 7.18561 7.81603 9.32672 7.1328 13.1055C6.62842 15.8944 7.58356 18.9392 9.61033 21.6298C10.0372 21.7732 10.4847 21.8809 10.9586 21.9431C13.7978 22.3163 14.8184 21.557 16.0178 21.0486C16.8142 20.7113 17.4134 21.0942 17.3843 21.3626C17.3392 21.7786 15.7693 22.4895 16.106 22.6388C17.4351 23.2285 19.0718 23.2334 20.3053 22.18C21.838 20.8712 22.4114 21.7659 22.4114 21.7659C22.4114 21.7659 21.6502 23.7076 19.3581 24.6717C17.4457 25.4761 15.4419 25.6743 13.6107 25.4683C15.19 26.5846 17.0035 27.5204 19.0005 28.1883C24.7099 26.2784 28.9276 22.1871 30.4145 17.9096C29.4072 16.9157 28.1716 16.2996 26.6988 16.0763C23.8674 15.6471 22.8322 16.3863 21.6228 16.8708C20.8198 17.1926 20.2285 16.7978 20.263 16.5299C20.3161 16.1148 21.8999 15.4351 21.5661 15.279C20.249 14.6633 18.6125 14.626 17.3585 15.6549C15.8003 16.9332 15.2446 16.0274 15.2446 16.0274C15.2446 16.0274 16.0438 14.1015 18.3546 13.1828ZM17.2709 18.5052H18.3709V17.4052H19.6296V18.5052H20.7296V19.7639H19.6296V20.8639H18.3709V19.7639H17.2709V18.5052Z" fill="url(#paint1_linear_13001_399)"/>
<path d="M17.2709 18.5052H18.3709V17.4052H19.6296V18.5052H20.7295V19.7639H19.6378C21.2597 20.5834 24.2383 21.8027 27.8177 22.3451C28.9956 20.9517 29.8813 19.4428 30.4143 17.9096C29.4069 16.9157 28.1713 16.2996 26.6986 16.0763C23.8672 15.647 22.8319 16.3863 21.6226 16.8708C20.8196 17.1926 20.2282 16.7978 20.2627 16.5299C20.3159 16.1148 21.8997 15.4351 21.5659 15.279C20.2488 14.6633 18.6123 14.626 17.3583 15.6548C15.8 16.9332 15.2443 16.0274 15.2443 16.0274C15.2443 16.0274 16.0438 14.1013 18.3543 13.1823C22.7102 11.4499 27.4739 12.818 29.637 14.9128C30.1057 15.3666 30.5038 15.8271 30.8447 16.2847C31.0392 15.2102 31.055 14.14 30.8679 13.105C30.1844 9.326 26.6192 7.18512 23.423 8.291C20.2412 9.39191 19.0002 11.5316 19.0002 11.5316C19.0002 11.5316 17.7592 9.39191 14.5774 8.291C12.7519 7.65927 10.8067 8.0883 9.34619 9.27521C10.0323 10.7442 10.836 12.1168 13.1254 14.8773C14.9868 17.1222 17.2709 18.5052 17.2709 18.5052Z" fill="#005BBB"/>
<path opacity="0.31" d="M27.277 9.64954C24.2712 8.13944 21.169 10.4892 20.1851 11.7299C21.882 11.3725 23.3668 11.1892 25.2457 11.5839C28.0252 12.1679 29.0654 13.1715 30.3064 14.6542C30.0871 11.9069 28.3519 10.1896 27.277 9.64954Z" fill="#005BBB"/>
</g>
<path d="M46.728 28V10.12H52.56C54.448 10.12 56.088 10.504 57.48 11.272C58.888 12.024 59.976 13.072 60.744 14.416C61.512 15.744 61.896 17.288 61.896 19.048C61.896 20.792 61.512 22.344 60.744 23.704C59.976 25.048 58.888 26.104 57.48 26.872C56.088 27.624 54.448 28 52.56 28H46.728ZM49.992 25.12H52.632C53.848 25.12 54.896 24.872 55.776 24.376C56.672 23.864 57.368 23.16 57.864 22.264C58.36 21.352 58.608 20.28 58.608 19.048C58.608 17.8 58.36 16.728 57.864 15.832C57.368 14.936 56.672 14.24 55.776 13.744C54.896 13.248 53.848 13 52.632 13H49.992V25.12ZM70.6136 28.288C69.3336 28.288 68.1656 27.992 67.1096 27.4C66.0696 26.808 65.2376 26 64.6136 24.976C64.0056 23.952 63.7016 22.784 63.7016 21.472C63.7016 20.16 64.0056 18.992 64.6136 17.968C65.2376 16.944 66.0696 16.136 67.1096 15.544C68.1496 14.952 69.3176 14.656 70.6136 14.656C71.8936 14.656 73.0536 14.952 74.0936 15.544C75.1336 16.136 75.9576 16.944 76.5656 17.968C77.1896 18.976 77.5016 20.144 77.5016 21.472C77.5016 22.784 77.1896 23.952 76.5656 24.976C75.9416 26 75.1096 26.808 74.0696 27.4C73.0296 27.992 71.8776 28.288 70.6136 28.288ZM70.6136 25.408C71.3176 25.408 71.9336 25.24 72.4616 24.904C73.0056 24.568 73.4296 24.104 73.7336 23.512C74.0536 22.904 74.2136 22.224 74.2136 21.472C74.2136 20.704 74.0536 20.032 73.7336 19.456C73.4296 18.864 73.0056 18.4 72.4616 18.064C71.9336 17.712 71.3176 17.536 70.6136 17.536C69.8936 17.536 69.2616 17.712 68.7176 18.064C68.1736 18.4 67.7416 18.864 67.4216 19.456C67.1176 20.032 66.9656 20.704 66.9656 21.472C66.9656 22.224 67.1176 22.904 67.4216 23.512C67.7416 24.104 68.1736 24.568 68.7176 24.904C69.2616 25.24 69.8936 25.408 70.6136 25.408ZM86.1739 28.288C84.8779 28.288 83.7099 27.992 82.6699 27.4C81.6459 26.792 80.8379 25.976 80.2459 24.952C79.6539 23.912 79.3579 22.744 79.3579 21.448C79.3579 20.152 79.6539 18.992 80.2459 17.968C80.8379 16.944 81.6459 16.136 82.6699 15.544C83.7099 14.952 84.8779 14.656 86.1739 14.656C87.1019 14.656 87.9659 14.824 88.7659 15.16C89.5659 15.48 90.2539 15.928 90.8299 16.504C91.4219 17.064 91.8459 17.736 92.1019 18.52L89.3419 19.72C89.1019 19.064 88.6939 18.536 88.1179 18.136C87.5579 17.736 86.9099 17.536 86.1739 17.536C85.4859 17.536 84.8699 17.704 84.3259 18.04C83.7979 18.376 83.3819 18.84 83.0779 19.432C82.7739 20.024 82.6219 20.704 82.6219 21.472C82.6219 22.24 82.7739 22.92 83.0779 23.512C83.3819 24.104 83.7979 24.568 84.3259 24.904C84.8699 25.24 85.4859 25.408 86.1739 25.408C86.9259 25.408 87.5819 25.208 88.1419 24.808C88.7019 24.408 89.1019 23.872 89.3419 23.2L92.1019 24.448C91.8459 25.184 91.4299 25.848 90.8539 26.44C90.2779 27.016 89.5899 27.472 88.7899 27.808C87.9899 28.128 87.1179 28.288 86.1739 28.288ZM101.135 28.288C99.9994 28.288 98.9434 28.08 97.9674 27.664C97.0074 27.248 96.1754 26.672 95.4714 25.936C94.7834 25.184 94.2794 24.312 93.9594 23.32L96.6714 22.144C97.1034 23.168 97.7274 23.976 98.5434 24.568C99.3594 25.144 100.279 25.432 101.303 25.432C101.879 25.432 102.375 25.344 102.791 25.168C103.223 24.976 103.551 24.72 103.775 24.4C104.015 24.08 104.135 23.696 104.135 23.248C104.135 22.72 103.975 22.288 103.655 21.952C103.351 21.6 102.887 21.328 102.263 21.136L98.8314 20.032C97.4394 19.6 96.3914 18.952 95.6874 18.088C94.9834 17.224 94.6314 16.208 94.6314 15.04C94.6314 14.016 94.8794 13.112 95.3754 12.328C95.8874 11.544 96.5914 10.936 97.4874 10.504C98.3994 10.056 99.4394 9.832 100.607 9.832C101.679 9.832 102.663 10.024 103.559 10.408C104.455 10.776 105.223 11.296 105.863 11.968C106.519 12.624 107.007 13.4 107.327 14.296L104.639 15.496C104.287 14.6 103.759 13.912 103.055 13.432C102.351 12.936 101.535 12.688 100.607 12.688C100.063 12.688 99.5834 12.784 99.1674 12.976C98.7514 13.152 98.4234 13.408 98.1834 13.744C97.9594 14.064 97.8474 14.448 97.8474 14.896C97.8474 15.392 98.0074 15.832 98.3274 16.216C98.6474 16.584 99.1354 16.872 99.7914 17.08L103.079 18.112C104.503 18.576 105.567 19.216 106.271 20.032C106.991 20.848 107.351 21.856 107.351 23.056C107.351 24.08 107.087 24.984 106.559 25.768C106.031 26.552 105.303 27.168 104.375 27.616C103.447 28.064 102.367 28.288 101.135 28.288ZM110.027 32.8V14.944H112.979V17.536L112.691 16.888C113.139 16.184 113.747 15.64 114.515 15.256C115.283 14.856 116.171 14.656 117.179 14.656C118.411 14.656 119.523 14.96 120.515 15.568C121.507 16.176 122.291 16.992 122.867 18.016C123.459 19.04 123.755 20.192 123.755 21.472C123.755 22.736 123.467 23.888 122.891 24.928C122.315 25.968 121.531 26.792 120.539 27.4C119.547 27.992 118.419 28.288 117.155 28.288C116.211 28.288 115.339 28.104 114.539 27.736C113.755 27.352 113.131 26.808 112.667 26.104L113.171 25.48V32.8H110.027ZM116.795 25.408C117.515 25.408 118.155 25.24 118.715 24.904C119.275 24.568 119.707 24.104 120.011 23.512C120.331 22.92 120.491 22.24 120.491 21.472C120.491 20.704 120.331 20.032 120.011 19.456C119.707 18.864 119.275 18.4 118.715 18.064C118.155 17.712 117.515 17.536 116.795 17.536C116.107 17.536 115.483 17.704 114.923 18.04C114.379 18.376 113.947 18.848 113.627 19.456C113.323 20.048 113.171 20.72 113.171 21.472C113.171 22.24 113.323 22.92 113.627 23.512C113.947 24.104 114.379 24.568 114.923 24.904C115.483 25.24 116.107 25.408 116.795 25.408ZM132.536 28.288C131.256 28.288 130.088 27.992 129.032 27.4C127.992 26.808 127.16 26 126.536 24.976C125.928 23.952 125.624 22.784 125.624 21.472C125.624 20.16 125.928 18.992 126.536 17.968C127.16 16.944 127.992 16.136 129.032 15.544C130.072 14.952 131.24 14.656 132.536 14.656C133.816 14.656 134.976 14.952 136.016 15.544C137.056 16.136 137.88 16.944 138.488 17.968C139.112 18.976 139.424 20.144 139.424 21.472C139.424 22.784 139.112 23.952 138.488 24.976C137.864 26 137.032 26.808 135.992 27.4C134.952 27.992 133.8 28.288 132.536 28.288ZM132.536 25.408C133.24 25.408 133.856 25.24 134.384 24.904C134.928 24.568 135.352 24.104 135.656 23.512C135.976 22.904 136.136 22.224 136.136 21.472C136.136 20.704 135.976 20.032 135.656 19.456C135.352 18.864 134.928 18.4 134.384 18.064C133.856 17.712 133.24 17.536 132.536 17.536C131.816 17.536 131.184 17.712 130.64 18.064C130.096 18.4 129.664 18.864 129.344 19.456C129.04 20.032 128.888 20.704 128.888 21.472C128.888 22.224 129.04 22.904 129.344 23.512C129.664 24.104 130.096 24.568 130.64 24.904C131.184 25.24 131.816 25.408 132.536 25.408ZM147.525 28.144C146.053 28.144 144.909 27.744 144.093 26.944C143.293 26.128 142.893 24.984 142.893 23.512V17.752H140.637V14.944H140.877C141.517 14.944 142.013 14.776 142.365 14.44C142.717 14.104 142.893 13.616 142.893 12.976V11.968H146.037V14.944H149.037V17.752H146.037V23.344C146.037 23.776 146.109 24.144 146.253 24.448C146.413 24.752 146.653 24.984 146.973 25.144C147.309 25.304 147.733 25.384 148.245 25.384C148.357 25.384 148.485 25.376 148.629 25.36C148.789 25.344 148.941 25.328 149.085 25.312V28C148.861 28.032 148.605 28.064 148.317 28.096C148.029 28.128 147.765 28.144 147.525 28.144Z" fill="white"/>
<defs>
<filter id="filter0_dd_13001_399" x="0" y="0" width="38" height="38" filterUnits="userSpaceOnUse" color-interpolation-filters="sRGB">
<feFlood flood-opacity="0" result="BackgroundImageFix"/>
<feColorMatrix in="SourceAlpha" type="matrix" values="0 0 0 0 0 0 0 0 0 0 0 0 0 0 0 0 0 0 127 0" result="hardAlpha"/>
<feOffset dy="1"/>
<feGaussianBlur stdDeviation="1"/>
<feColorMatrix type="matrix" values="0 0 0 0 0.0627451 0 0 0 0 0.0941176 0 0 0 0 0.156863 0 0 0 0.06 0"/>
<feBlend mode="normal" in2="BackgroundImageFix" result="effect1_dropShadow_13001_399"/>
<feColorMatrix in="SourceAlpha" type="matrix" values="0 0 0 0 0 0 0 0 0 0 0 0 0 0 0 0 0 0 127 0" result="hardAlpha"/>
<feOffset dy="1"/>
<feGaussianBlur stdDeviation="1.5"/>
<feColorMatrix type="matrix" values="0 0 0 0 0.0627451 0 0 0 0 0.0941176 0 0 0 0 0.156863 0 0 0 0.1 0"/>
<feBlend mode="normal" in2="effect1_dropShadow_13001_399" result="effect2_dropShadow_13001_399"/>
<feBlend mode="normal" in="SourceGraphic" in2="effect2_dropShadow_13001_399" result="shape"/>
</filter>
<linearGradient id="paint0_linear_13001_399" x1="19" y1="2" x2="19" y2="34" gradientUnits="userSpaceOnUse">
<stop stop-color="white"/>
<stop offset="1" stop-color="#D0D5DD"/>
</linearGradient>
<linearGradient id="paint1_linear_13001_399" x1="10.1989" y1="24.2137" x2="27.8347" y2="6.57791" gradientUnits="userSpaceOnUse">
<stop stop-color="#0076C1"/>
<stop offset="0.0737" stop-color="#0B82C6"/>
<stop offset="0.2766" stop-color="#269ED3"/>
<stop offset="0.4546" stop-color="#36AFDA"/>
<stop offset="0.587" stop-color="#3CB5DD"/>
</linearGradient>
</defs>
</svg>
